<svg width="15" height="23" viewBox="0 0 15 23" fill="none" xmlns="http://www.w3.org/2000/svg">
<path d="M15 12.5C15 16.6421 11.6421 20 7.5 20C3.35786 20 0 16.6421 0 12.5C0 8.35786 3.35786 5 7.5 5C11.6421 5 15 8.35786 15 12.5ZM0.9 12.5C0.9 16.1451 3.85492 19.1 7.5 19.1C11.1451 19.1 14.1 16.1451 14.1 12.5C14.1 8.85492 11.1451 5.9 7.5 5.9C3.85492 5.9 0.9 8.85492 0.9 12.5Z" fill="#222222"/>
<path d="M3.645 12.875C3.645 12.025 3.815 11.285 4.155 10.655C4.495 10.015 4.965 9.52 5.565 9.17C6.175 8.82 6.87 8.645 7.65 8.645C8.66 8.645 9.49 8.89 10.14 9.38C10.8 9.87 11.235 10.55 11.445 11.42H9.975C9.835 10.92 9.56 10.525 9.15 10.235C8.75 9.945 8.25 9.8 7.65 9.8C6.87 9.8 6.24 10.07 5.76 10.61C5.28 11.14 5.04 11.895 5.04 12.875C5.04 13.865 5.28 14.63 5.76 15.17C6.24 15.71 6.87 15.98 7.65 15.98C8.25 15.98 8.75 15.84 9.15 15.56C9.55 15.28 9.825 14.88 9.975 14.36H11.445C11.225 15.2 10.785 15.875 10.125 16.385C9.465 16.885 8.64 17.135 7.65 17.135C6.87 17.135 6.175 16.96 5.565 16.61C4.965 16.26 4.495 15.765 4.155 15.125C3.815 14.485 3.645 13.735 3.645 12.875Z" fill="#222222"/>
</svg>
