<svg width="24" height="22" viewBox="0 0 24 22" fill="none" xmlns="https://www.w3.org/2000/svg">
<path d="M21.0389 21.7765L17.1278 17.8139C15.4403 18.5923 13.6045 18.9845 11.7505 18.9627C9.83912 18.9868 7.94745 18.5689 6.21949 17.7407C4.88005 17.0786 3.67729 16.1642 2.67546 15.0463C1.61201 13.8913 0.776183 12.541 0.212942 11.0683L0.0964007 10.6975L0.218769 10.3244C1.06114 8.14746 2.4788 6.24749 4.31637 4.83276L1.26182 1.73802L2.90855 0.0708008L22.6845 20.1069L21.0413 21.7765H21.0389ZM5.96543 6.50469C4.47593 7.56255 3.29971 9.01226 2.56358 10.6975C4.14203 14.3873 7.78332 16.7272 11.7505 16.6013C12.9741 16.6114 14.1904 16.4119 15.3481 16.0109L13.2504 13.8856C12.7834 14.1175 12.2705 14.2386 11.7505 14.2398C9.82464 14.2275 8.26638 12.6487 8.2543 10.6975C8.25486 10.1695 8.37443 9.64849 8.60392 9.17437L5.96543 6.50469ZM20.9014 14.96L19.2791 13.3176C19.9616 12.5358 20.521 11.6521 20.9375 10.6975C19.3611 7.00601 15.7185 4.66518 11.7505 4.79379C11.4626 4.79379 11.1737 4.80442 10.894 4.82449L8.83701 2.73811C9.79454 2.53058 10.7713 2.42805 11.7505 2.4323C13.6619 2.40827 15.5536 2.82622 17.2816 3.65437C18.621 4.31646 19.8238 5.23089 20.8256 6.34884C21.8886 7.50238 22.7243 8.85093 23.2881 10.3221L23.4047 10.6975L23.2823 11.0706C22.7367 12.5088 21.9295 13.8306 20.9025 14.9672L20.9014 14.96Z" fill="black" fill-opacity="0.5"/>
</svg>
