<svg width="17" height="25" viewBox="0 0 17 25" fill="none" xmlns="https://www.w3.org/2000/svg">
<path d="M15.3568 4.44313C13.9002 1.92951 11.3131 0.393838 8.43616 0.33515C8.31334 0.332619 8.18974 0.332619 8.06688 0.33515C5.18997 0.393838 2.60285 1.92951 1.14625 4.44313C-0.34259 7.01244 -0.383324 10.0987 1.03727 12.6989L6.98866 23.592C6.99133 23.5969 6.994 23.6017 6.99677 23.6065C7.25861 24.0616 7.72769 24.3333 8.25161 24.3333C8.77549 24.3333 9.24456 24.0615 9.50636 23.6065C9.50913 23.6017 9.5118 23.5969 9.51447 23.592L15.4659 12.6989C16.8864 10.0987 16.8456 7.01244 15.3568 4.44313V4.44313ZM8.25152 11.2083C6.39053 11.2083 4.87652 9.69425 4.87652 7.83327C4.87652 5.97229 6.39053 4.45827 8.25152 4.45827C10.1125 4.45827 11.6265 5.97229 11.6265 7.83327C11.6265 9.69425 10.1125 11.2083 8.25152 11.2083Z" fill="black" fill-opacity="0.5"/>
</svg>
