<svg width="380" height="120" viewBox="0 0 380 120" fill="none" xmlns="http://www.w3.org/2000/svg">
<g clip-path="url(#clip0_1_4119)">
<path d="M0 118.5H380" stroke="black" stroke-width="2"/>
<path d="M28.5604 55.545H32.6318C33.2048 55.545 33.6873 55.53 34.0794 55.5C34.5016 55.47 34.8786 55.395 35.2104 55.275C35.5723 55.155 35.8889 54.99 36.1604 54.78C36.4619 54.57 36.7786 54.3 37.1104 53.97L65.158 26.475C65.5199 26.115 65.8516 25.875 66.1532 25.755C66.485 25.605 66.862 25.53 67.2842 25.53H69.0937L39.4627 54.555C38.9199 55.065 38.4524 55.455 38.0604 55.725C37.6985 55.995 37.2461 56.205 36.7032 56.355C37.2762 56.505 37.7739 56.715 38.1961 56.985C38.6183 57.255 39.0556 57.645 39.508 58.155L70.9032 88.8H69.0937C68.5207 88.8 68.0985 88.74 67.827 88.62C67.5556 88.47 67.2993 88.245 67.058 87.945L37.5627 59.37C37.231 59.04 36.9294 58.77 36.658 58.56C36.3866 58.32 36.085 58.125 35.7532 57.975C35.4215 57.825 35.0143 57.72 34.5318 57.66C34.0794 57.57 33.4913 57.525 32.7675 57.525H28.5604V88.8H26.0723V25.53H28.5604V55.545ZM143.883 66.12L129.316 30.885C128.984 30.075 128.668 29.175 128.366 28.185C128.095 29.175 127.778 30.075 127.416 30.885L112.849 66.12H143.883ZM155.916 88.8H153.971C153.519 88.8 153.187 88.545 152.976 88.035L144.697 68.01H112.035L103.757 88.035C103.606 88.545 103.259 88.8 102.716 88.8H100.861L127.19 25.53H129.588L155.916 88.8ZM209.979 60.315C212.964 60.315 215.649 59.895 218.031 59.055C220.444 58.215 222.479 57.06 224.138 55.59C225.827 54.12 227.124 52.38 228.029 50.37C228.933 48.36 229.386 46.2 229.386 43.89C229.386 38.55 227.772 34.485 224.545 31.695C221.318 28.905 216.463 27.51 209.979 27.51H197.267V60.315H209.979ZM209.979 25.53C217.156 25.53 222.6 27.06 226.31 30.12C230.049 33.18 231.919 37.77 231.919 43.89C231.919 46.56 231.391 49.035 230.336 51.315C229.31 53.565 227.833 55.515 225.903 57.165C223.972 58.785 221.65 60.06 218.936 60.99C216.252 61.89 213.266 62.34 209.979 62.34H197.267V88.8H194.779V25.53H209.979ZM288.368 60.315C291.353 60.315 294.037 59.895 296.42 59.055C298.833 58.215 300.868 57.06 302.528 55.59C304.217 54.12 305.514 52.38 306.419 50.37C307.324 48.36 307.776 46.2 307.776 43.89C307.776 38.55 306.162 34.485 302.935 31.695C299.707 28.905 294.852 27.51 288.368 27.51H275.656V60.315H288.368ZM288.368 25.53C295.545 25.53 300.989 27.06 304.7 30.12C308.439 33.18 310.309 37.77 310.309 43.89C310.309 46.56 309.781 49.035 308.726 51.315C307.701 53.565 306.223 55.515 304.293 57.165C302.362 58.785 300.039 60.06 297.325 60.99C294.641 61.89 291.655 62.34 288.368 62.34H275.656V88.8H273.168V25.53H288.368ZM354.045 88.8H351.557V25.53H354.045V88.8Z" fill="black"/>
</g>
<defs>
<clipPath id="clip0_1_4119">
<rect width="380" height="120" fill="white"/>
</clipPath>
</defs>
</svg>
