<svg width="21" height="19" viewBox="0 0 21 19" fill="none" xmlns="http://www.w3.org/2000/svg">
<path d="M18.409 18.807L14.9868 15.3847C13.5103 16.057 11.9039 16.3957 10.2817 16.3769C8.60923 16.3977 6.95402 16.0368 5.44205 15.3215C4.27004 14.7497 3.21763 13.96 2.34103 12.9945C1.41051 11.997 0.67916 10.8309 0.186324 9.55899L0.0843506 9.23879L0.191423 8.91655C0.928499 7.03645 2.16895 5.39557 3.77682 4.17376L1.10409 1.50103L2.54498 0.0611572L19.8489 17.3651L18.4111 18.807H18.409ZM5.21975 5.6177C3.91644 6.5313 2.88725 7.78333 2.24313 9.23879C3.62428 12.4254 6.8104 14.4462 10.2817 14.3375C11.3523 14.3462 12.4166 14.1739 13.4296 13.8276L11.5941 11.9921C11.1855 12.1924 10.7367 12.297 10.2817 12.298C8.59656 12.2874 7.23308 10.9239 7.22251 9.23879C7.223 8.78273 7.32763 8.3328 7.52843 7.92333L5.21975 5.6177ZM18.2887 12.92L16.8692 11.5016C17.4664 10.8264 17.9559 10.0632 18.3203 9.23879C16.941 6.05066 13.7537 4.02903 10.2817 4.1401C10.0298 4.1401 9.77695 4.14928 9.53221 4.16662L7.73238 2.36474C8.57022 2.18551 9.42492 2.09696 10.2817 2.10063C11.9542 2.07988 13.6094 2.44084 15.1214 3.15606C16.2934 3.72786 17.3458 4.5176 18.2224 5.4831C19.1525 6.47934 19.8838 7.644 20.3771 8.91451L20.4791 9.23879L20.372 9.56102C19.8946 10.8031 19.1883 11.9446 18.2897 12.9262L18.2887 12.92Z" fill="black" fill-opacity="0.5"/>
</svg>
